<mxfile host="app.diagrams.net" agent="Mozilla/5.0 (Windows NT 10.0; Win64; x64) AppleWebKit/537.36 (KHTML, like Gecko) Chrome/127.0.0.0 Safari/537.36" version="24.7.6">
  <diagram id="prtHgNgQTEPvFCAcTncT" name="Page-1">
    <mxGraphModel dx="1562" dy="818" grid="1" gridSize="10" guides="1" tooltips="1" connect="1" arrows="1" fold="1" page="1" pageScale="1" pageWidth="827" pageHeight="1169" math="0" shadow="0">
      <root>
        <mxCell id="0" />
        <mxCell id="1" parent="0" />
        <mxCell id="dNxyNK7c78bLwvsdeMH5-11" value="Vehicle Management System Plan" style="swimlane;html=1;startSize=20;horizontal=1;containerType=tree;glass=0;" parent="1" vertex="1">
          <mxGeometry x="29" y="160" width="770" height="380" as="geometry" />
        </mxCell>
        <mxCell id="R5_4vIjo6kMFrNbBY1Ef-10" style="edgeStyle=orthogonalEdgeStyle;rounded=0;orthogonalLoop=1;jettySize=auto;html=1;" edge="1" parent="dNxyNK7c78bLwvsdeMH5-11" source="R5_4vIjo6kMFrNbBY1Ef-1" target="R5_4vIjo6kMFrNbBY1Ef-9">
          <mxGeometry relative="1" as="geometry" />
        </mxCell>
        <mxCell id="R5_4vIjo6kMFrNbBY1Ef-12" style="edgeStyle=orthogonalEdgeStyle;rounded=0;orthogonalLoop=1;jettySize=auto;html=1;entryX=0.5;entryY=0;entryDx=0;entryDy=0;" edge="1" parent="dNxyNK7c78bLwvsdeMH5-11" source="R5_4vIjo6kMFrNbBY1Ef-1" target="R5_4vIjo6kMFrNbBY1Ef-11">
          <mxGeometry relative="1" as="geometry" />
        </mxCell>
        <mxCell id="R5_4vIjo6kMFrNbBY1Ef-1" value="&lt;font size=&quot;3&quot;&gt;VEHICLE&lt;/font&gt;&lt;div&gt;&lt;font size=&quot;3&quot;&gt;(ABSTRACT CLASS)&lt;/font&gt;&lt;/div&gt;" style="rounded=1;whiteSpace=wrap;html=1;" vertex="1" parent="dNxyNK7c78bLwvsdeMH5-11">
          <mxGeometry x="271" y="40" width="174" height="60" as="geometry" />
        </mxCell>
        <mxCell id="R5_4vIjo6kMFrNbBY1Ef-9" value="&lt;font size=&quot;3&quot;&gt;CAR&lt;/font&gt;&lt;div&gt;&lt;font size=&quot;3&quot;&gt;(CLASS)&lt;/font&gt;&lt;/div&gt;" style="ellipse;whiteSpace=wrap;html=1;" vertex="1" parent="dNxyNK7c78bLwvsdeMH5-11">
          <mxGeometry x="11" y="220" width="150" height="80" as="geometry" />
        </mxCell>
        <mxCell id="R5_4vIjo6kMFrNbBY1Ef-11" value="&lt;font size=&quot;3&quot;&gt;MOTORCYCLE&lt;/font&gt;&lt;div&gt;&lt;font size=&quot;3&quot;&gt;(CLASS)&lt;/font&gt;&lt;/div&gt;" style="ellipse;whiteSpace=wrap;html=1;" vertex="1" parent="dNxyNK7c78bLwvsdeMH5-11">
          <mxGeometry x="171" y="220" width="150" height="80" as="geometry" />
        </mxCell>
        <mxCell id="R5_4vIjo6kMFrNbBY1Ef-13" value="&lt;font size=&quot;3&quot;&gt;ELECTRIC&lt;/font&gt;&lt;div&gt;&lt;font size=&quot;3&quot;&gt;(INTERFACE)&lt;/font&gt;&lt;/div&gt;" style="rounded=1;whiteSpace=wrap;html=1;" vertex="1" parent="dNxyNK7c78bLwvsdeMH5-11">
          <mxGeometry x="501" y="110" width="155" height="60" as="geometry" />
        </mxCell>
        <mxCell id="R5_4vIjo6kMFrNbBY1Ef-15" style="edgeStyle=orthogonalEdgeStyle;rounded=0;orthogonalLoop=1;jettySize=auto;html=1;entryX=0.5;entryY=1;entryDx=0;entryDy=0;" edge="1" parent="dNxyNK7c78bLwvsdeMH5-11" source="R5_4vIjo6kMFrNbBY1Ef-14" target="R5_4vIjo6kMFrNbBY1Ef-1">
          <mxGeometry relative="1" as="geometry" />
        </mxCell>
        <mxCell id="R5_4vIjo6kMFrNbBY1Ef-14" value="&lt;font size=&quot;3&quot;&gt;ELECTRIC CAR&lt;/font&gt;&lt;div&gt;&lt;font size=&quot;3&quot;&gt;(CLASS)&lt;/font&gt;&lt;/div&gt;" style="ellipse;whiteSpace=wrap;html=1;" vertex="1" parent="dNxyNK7c78bLwvsdeMH5-11">
          <mxGeometry x="361" y="220" width="149" height="80" as="geometry" />
        </mxCell>
        <mxCell id="R5_4vIjo6kMFrNbBY1Ef-16" style="edgeStyle=orthogonalEdgeStyle;rounded=0;orthogonalLoop=1;jettySize=auto;html=1;entryX=1.007;entryY=0.625;entryDx=0;entryDy=0;entryPerimeter=0;" edge="1" parent="dNxyNK7c78bLwvsdeMH5-11" source="R5_4vIjo6kMFrNbBY1Ef-13" target="R5_4vIjo6kMFrNbBY1Ef-14">
          <mxGeometry relative="1" as="geometry" />
        </mxCell>
      </root>
    </mxGraphModel>
  </diagram>
</mxfile>
